<?xml version="1.0" encoding="UTF-8"?>
<svg xmlns="http://www.w3.org/2000/svg" xmlns:xlink="http://www.w3.org/1999/xlink" width="114px" height="30px" viewBox="0 0 113 30" version="1.1">
<g id="surface1">
<path style=" stroke:none;fill-rule:nonzero;fill:rgb(13.72549%,9.411765%,8.235294%);fill-opacity:1;" d="M 7.542969 24.140625 L 18.613281 24.140625 C 19.40625 24.140625 20.050781 24.789062 20.050781 25.585938 L 20.050781 27.972656 C 20.050781 28.773438 19.40625 29.421875 18.613281 29.421875 L 2.871094 29.421875 C 2.164062 29.421875 1.488281 29.136719 0.988281 28.632812 C 0.492188 28.128906 0.214844 27.441406 0.21875 26.730469 L 0.21875 3.226562 C 0.21875 2.425781 0.863281 1.777344 1.65625 1.777344 L 4.679688 1.777344 C 5.476562 1.777344 6.121094 2.425781 6.121094 3.226562 L 6.121094 22.691406 C 6.121094 23.484375 6.753906 24.132812 7.542969 24.140625 Z M 7.542969 24.140625 "/>
<path style=" stroke:none;fill-rule:nonzero;fill:rgb(13.72549%,9.411765%,8.235294%);fill-opacity:1;" d="M 22.660156 8.046875 L 25.378906 8.046875 C 26.144531 8.046875 26.765625 8.671875 26.765625 9.441406 L 26.765625 27.898438 C 26.765625 28.671875 26.144531 29.296875 25.378906 29.296875 L 22.660156 29.296875 C 21.894531 29.296875 21.277344 28.671875 21.277344 27.898438 L 21.277344 9.441406 C 21.277344 8.671875 21.894531 8.046875 22.660156 8.046875 Z M 22.660156 8.046875 "/>
<path style=" stroke:none;fill-rule:nonzero;fill:rgb(13.72549%,9.411765%,8.235294%);fill-opacity:1;" d="M 31.730469 8.347656 C 34.621094 6.339844 38.316406 5.914062 41.585938 7.207031 C 45.796875 8.90625 46.894531 12.746094 46.894531 16.988281 C 46.894531 17.726562 46.894531 25.585938 46.894531 28.253906 C 46.894531 28.484375 46.804688 28.707031 46.640625 28.875 C 46.480469 29.039062 46.257812 29.132812 46.027344 29.132812 L 42.273438 29.132812 C 41.796875 29.132812 41.40625 28.738281 41.40625 28.257812 L 41.363281 16.25 C 41.363281 13.949219 40.613281 12 38.003906 11.90625 C 36.890625 11.835938 35.792969 12.203125 34.9375 12.929688 C 34.25 13.609375 33.792969 14.492188 33.632812 15.449219 C 33.46875 16.40625 33.402344 17.375 33.441406 18.34375 L 33.472656 28.273438 C 33.472656 28.757812 33.082031 29.148438 32.597656 29.148438 L 28.914062 29.148438 C 28.675781 29.148438 28.449219 29.050781 28.285156 28.878906 C 28.125 28.707031 28.035156 28.476562 28.046875 28.238281 C 28.105469 25.566406 28.113281 22.851562 28.1875 20.191406 C 28.265625 17.53125 28.1875 14.585938 29.035156 11.949219 C 29.519531 10.484375 30.46875 9.222656 31.730469 8.347656 Z M 31.730469 8.347656 "/>
<path style=" stroke:none;fill-rule:nonzero;fill:rgb(13.72549%,9.411765%,8.235294%);fill-opacity:1;" d="M 52.761719 29.296875 L 49.554688 29.296875 C 49.25 29.296875 48.960938 29.175781 48.746094 28.957031 C 48.535156 28.742188 48.414062 28.449219 48.414062 28.144531 L 48.414062 2.820312 C 48.414062 2.1875 48.925781 1.671875 49.554688 1.671875 L 52.761719 1.671875 C 53.394531 1.671875 53.90625 2.183594 53.90625 2.820312 L 53.90625 14.917969 C 53.90625 15.078125 54.003906 15.21875 54.152344 15.273438 C 54.300781 15.328125 54.46875 15.285156 54.570312 15.164062 L 60.53125 8.207031 C 60.746094 7.957031 61.058594 7.8125 61.390625 7.8125 L 66.257812 7.8125 C 66.480469 7.8125 66.679688 7.941406 66.769531 8.144531 C 66.859375 8.34375 66.824219 8.582031 66.679688 8.746094 L 60.761719 15.507812 C 60.429688 15.882812 60.382812 16.433594 60.640625 16.863281 L 67.078125 27.5625 C 67.289062 27.914062 67.296875 28.351562 67.101562 28.710938 C 66.902344 29.074219 66.527344 29.296875 66.121094 29.304688 L 62.238281 29.304688 C 61.832031 29.304688 61.457031 29.089844 61.253906 28.734375 L 56.410156 20.40625 C 56.359375 20.316406 56.269531 20.253906 56.164062 20.242188 C 56.0625 20.230469 55.960938 20.269531 55.890625 20.34375 L 55.316406 20.960938 C 54.410156 21.929688 53.90625 23.210938 53.90625 24.539062 L 53.90625 28.144531 C 53.90625 28.453125 53.785156 28.746094 53.570312 28.960938 C 53.355469 29.175781 53.066406 29.296875 52.761719 29.296875 Z M 52.761719 29.296875 "/>
<path style=" stroke:none;fill-rule:nonzero;fill:rgb(13.333333%,42.352941%,87.843137%);fill-opacity:1;" d="M 68.441406 2.679688 C 68.441406 1.324219 69.535156 0.222656 70.882812 0.222656 L 82.589844 0.222656 C 85.632812 0.222656 87.90625 1.085938 89.40625 2.820312 C 90.570312 4.152344 91.1875 5.875 91.140625 7.648438 C 91.140625 9.480469 90.710938 10.9375 89.847656 12.019531 C 89.253906 12.714844 88.53125 13.28125 87.714844 13.6875 L 87.714844 13.726562 C 89.183594 14.210938 90.417969 15.230469 91.175781 16.582031 C 91.832031 17.851562 92.148438 19.269531 92.097656 20.695312 C 92.097656 21.84375 91.855469 22.980469 91.398438 24.03125 C 91 25.039062 90.398438 25.949219 89.628906 26.703125 C 88.824219 27.546875 87.839844 28.195312 86.75 28.59375 C 85.394531 29.0625 83.417969 29.296875 80.816406 29.300781 L 70.960938 29.300781 C 70.292969 29.300781 69.648438 29.03125 69.175781 28.554688 C 68.703125 28.078125 68.441406 27.433594 68.441406 26.761719 Z M 74.101562 11.644531 L 81.433594 11.644531 C 82.449219 11.699219 83.457031 11.425781 84.3125 10.867188 C 85.113281 10.320312 85.570312 9.390625 85.527344 8.417969 C 85.527344 7.230469 85.144531 6.390625 84.382812 5.898438 C 83.722656 5.449219 82.675781 5.226562 81.25 5.230469 L 74.101562 5.230469 Z M 74.101562 24.328125 L 81.691406 24.328125 C 83.164062 24.328125 84.269531 23.980469 85.007812 23.289062 C 85.792969 22.570312 86.1875 21.46875 86.1875 19.988281 C 86.234375 18.914062 85.730469 17.894531 84.859375 17.277344 C 84.015625 16.730469 83.027344 16.460938 82.023438 16.5 L 74.101562 16.5 Z M 74.101562 24.328125 "/>
<path style=" stroke:none;fill-rule:nonzero;fill:rgb(13.333333%,42.352941%,87.843137%);fill-opacity:1;" d="M 111.523438 23.066406 C 111.773438 23.066406 112.007812 23.191406 112.148438 23.394531 C 112.292969 23.601562 112.324219 23.863281 112.238281 24.101562 C 111.59375 25.878906 110.394531 27.402344 108.824219 28.445312 C 107.265625 29.496094 105.421875 30.039062 103.546875 30.003906 C 100.425781 30.003906 97.992188 29.140625 96.25 27.40625 C 94.28125 25.410156 93.296875 22.332031 93.296875 18.175781 C 93.234375 15.925781 93.769531 13.695312 94.847656 11.722656 C 96.515625 8.757812 99.28125 7.277344 103.136719 7.277344 C 105.71875 7.277344 107.832031 8.015625 109.476562 9.5 C 111.664062 11.5 112.757812 14.6875 112.757812 19.066406 L 112.757812 19.714844 C 112.757812 19.984375 112.542969 20.199219 112.277344 20.199219 L 98.777344 20.199219 L 98.777344 20.347656 C 98.882812 21.464844 99.210938 22.550781 99.738281 23.539062 C 100.523438 24.871094 101.863281 25.511719 103.757812 25.472656 C 104.257812 25.464844 104.746094 25.347656 105.195312 25.128906 C 105.742188 24.863281 106.222656 24.476562 106.597656 23.996094 C 106.988281 23.445312 107.613281 23.117188 108.28125 23.101562 Z M 106.726562 16.414062 C 106.863281 16.410156 106.988281 16.347656 107.078125 16.242188 C 107.164062 16.136719 107.203125 16 107.183594 15.863281 C 107.050781 14.730469 106.527344 13.675781 105.703125 12.890625 C 104.984375 12.277344 104.066406 11.949219 103.125 11.964844 C 102.039062 11.914062 100.984375 12.347656 100.246094 13.152344 C 99.601562 13.921875 99.191406 14.863281 99.070312 15.863281 C 99.050781 16 99.089844 16.136719 99.179688 16.242188 C 99.265625 16.347656 99.394531 16.410156 99.53125 16.414062 Z M 106.726562 16.414062 "/>
<path style=" stroke:none;fill-rule:nonzero;fill:rgb(13.333333%,42.352941%,87.843137%);fill-opacity:1;" d="M 21.28125 0 L 26.519531 0 L 26.519531 5.058594 L 21.28125 5.058594 Z M 21.28125 0 "/>
</g>
</svg>
