<svg width="180" height="32" viewBox="0 0 180 32" fill="none" xmlns="http://www.w3.org/2000/svg">
<path d="M70.0007 23.7348V20.6255C74.9237 20.0037 78.1108 17.3089 78.1108 13.6296C78.1108 9.43202 73.9391 6.5041 67.7723 6.5041C61.6056 6.5041 57.4339 9.43202 57.4339 13.6296C57.4339 17.3089 60.6209 20.0037 65.544 20.6255V23.7348H56.5789V27.8287H78.9658V23.7348H70.0007ZM62.072 13.6296C62.072 11.7122 64.4039 10.4425 67.7723 10.4425C71.1408 10.4425 73.4727 11.7122 73.4727 13.6296C73.4727 15.5211 71.1408 16.8166 67.7723 16.8166C64.4039 16.8166 62.072 15.5211 62.072 13.6296Z" fill="black"/>
<path d="M87.2033 6.34863H82.8502V14.0701H102.802V10.8053H87.2033V6.34863ZM103.89 15.0029H81.5029V18.1899H103.89V15.0029ZM102.594 19.1227H82.7725V21.8692H98.319V22.6725H82.8243V28.6061H102.828V25.8336H87.0996V25.0044H102.594V19.1227Z" fill="black"/>
<path d="M127.881 6.47819H123.502V28.6061H127.881V6.47819ZM114.096 6.63365C109.977 6.63365 107.023 9.48385 107.023 13.811C107.023 18.1381 109.977 20.9883 114.096 20.9883C118.19 20.9883 121.144 18.1381 121.144 13.811C121.144 9.48385 118.19 6.63365 114.096 6.63365ZM114.096 10.5462C115.833 10.5462 116.947 11.9454 116.947 13.811C116.947 15.7025 115.833 17.0757 114.096 17.0757C112.335 17.0757 111.246 15.7025 111.246 13.811C111.246 11.9454 112.335 10.5462 114.096 10.5462Z" fill="black"/>
<path d="M148.478 6.47819V10.1057H145.058C144.151 7.87737 141.689 6.5041 138.373 6.5041C134.123 6.5041 131.273 8.75834 131.273 12.2045C131.273 15.6765 134.123 17.9049 138.373 17.9049C141.741 17.9049 144.229 16.5057 145.11 14.1996H148.478V17.9308H152.857V6.47819H148.478ZM138.373 14.381C136.689 14.381 135.626 13.5259 135.626 12.2045C135.626 10.883 136.689 10.028 138.373 10.028C140.057 10.028 141.119 10.883 141.119 12.2045C141.119 13.5259 140.057 14.381 138.373 14.381ZM148.556 20.1591H137.621V18.7081H133.32V28.6061H152.857V18.7081H148.556V20.1591ZM137.621 25.134V23.5534H148.556V25.134H137.621Z" fill="black"/>
<path d="M177.366 6.7373H157.57V18.2676H177.366V6.7373ZM173.039 14.2774H161.898V10.7535H173.039V14.2774ZM178.662 20.1073H156.275V24.1494H165.214V29.1243H169.723V24.1494H178.662V20.1073Z" fill="black"/>
<path d="M106.716 25.5231C106.716 24.3783 107.644 23.4502 108.789 23.4502H122.651V23.4502C122.651 25.7398 120.795 27.5959 118.506 27.5959H108.789C107.644 27.5959 106.716 26.6679 106.716 25.5231V25.5231Z" fill="black"/>
<path d="M0.668945 5.05469C5.50322 2.26362 11.6848 3.91997 14.4758 8.75424L22.4528 22.5707C23.8483 24.9879 23.0202 28.0786 20.603 29.4742C18.1859 30.8697 15.0951 30.0415 13.6996 27.6244L0.668945 5.05469Z" fill="#2A5DF3"/>
<path d="M16.7744 5.05469C21.6087 2.26362 27.7902 3.91997 30.5813 8.75424L38.5583 22.5707C39.9538 24.9879 39.1256 28.0786 36.7085 29.4742C34.2914 30.8697 31.2006 30.0415 29.805 27.6244L16.7744 5.05469Z" fill="#2A5DF3"/>
<circle cx="40.9604" cy="9.06954" r="5.31172" fill="#2A5DF3"/>
</svg>
